# xmcd
#
# Track frame offsets: 
#        150
#        30147
#        47099
#        70336
#        92394
#        108813
#        134846
#        158122
#        189051
#        225143
#        261952
#
# Disc length: 3961 seconds
#
# Revision: 0
# Processed by: cddbd v1.5.2PL0 Copyright (c) Steve Scherf et al.
# Submitted via: ExactAudioCopy v0.99pb5
#
DISCID=7c0f770b
DTITLE=Georg Schroeter and Marc Breitfelder - Live at Blues Baltica
DYEAR=2010
DGENRE=Blues and Boogie
TTITLE0=Sunnyland
TTITLE1=All Night Long
TTITLE2=Little Piece Of Paper
TTITLE3=Long As I Can See The Light
TTITLE4=Sugar and Spice
TTITLE5=Talk To Me
TTITLE6=Rush Hour
TTITLE7=Can't Be Satisfied
TTITLE8=Shake Your Boogie
TTITLE9=Runnin' On Faith
TTITLE10=Rock'n'Roll Queenie
EXTD=
EXTT0=
EXTT1=
EXTT2=
EXTT3=
EXTT4=
EXTT5=
EXTT6=
EXTT7=
EXTT8=
EXTT9=
EXTT10=
PLAYORDER=
